<svg width="12" height="12" viewBox="0 0 12 12" fill="none" xmlns="http://www.w3.org/2000/svg">
<path d="M6.5 8.00201C6.5 8.27816 6.27614 8.50201 6 8.50201C5.72386 8.50201 5.5 8.27816 5.5 8.00201C5.5 7.72587 5.72386 7.50201 6 7.50201C6.27614 7.50201 6.5 7.72587 6.5 8.00201Z" fill="#252527"/>
<path fill-rule="evenodd" clip-rule="evenodd" d="M6 3.50201C6.27614 3.50201 6.5 3.72587 6.5 4.00201V6.50201C6.5 6.77816 6.27614 7.00201 6 7.00201C5.72386 7.00201 5.5 6.77816 5.5 6.50201V4.00201C5.5 3.72587 5.72386 3.50201 6 3.50201Z" fill="#252527"/>
<path fill-rule="evenodd" clip-rule="evenodd" d="M6 2.00201C3.79086 2.00201 2 3.79288 2 6.00201C2 8.21115 3.79086 10.002 6 10.002C8.20914 10.002 10 8.21115 10 6.00201C10 3.79288 8.20914 2.00201 6 2.00201ZM1 6.00201C1 3.24059 3.23858 1.00201 6 1.00201C8.76142 1.00201 11 3.24059 11 6.00201C11 8.76344 8.76142 11.002 6 11.002C3.23858 11.002 1 8.76344 1 6.00201Z" fill="#252527"/>
</svg>
