<svg width="25" height="25" viewBox="0 0 25 25" fill="none" xmlns="http://www.w3.org/2000/svg">
<path d="M5.80029 21.5713H9.13363C9.68591 21.5713 10.1336 21.1236 10.1336 20.5713V16.9213C10.1336 15.8167 11.0291 14.9213 12.1336 14.9213H13.467C14.5715 14.9213 15.467 15.8167 15.467 16.9213V20.5713C15.467 21.1236 15.9147 21.5713 16.467 21.5713H19.8003C20.3526 21.5713 20.8003 21.1236 20.8003 20.5713V11.0978C20.8003 9.90895 20.2715 8.78171 19.3572 8.02176L15.3572 4.69676C13.8752 3.4648 11.7254 3.4648 10.2433 4.69676L6.24334 8.02176C5.32911 8.78171 4.80029 9.90895 4.80029 11.0978V20.5713C4.80029 21.1236 5.24801 21.5713 5.80029 21.5713Z" stroke="white" stroke-width="1.5"/>
</svg>
