<svg width="14" height="14" viewBox="0 0 14 14" fill="none" xmlns="http://www.w3.org/2000/svg">
<path d="M11.1761 2.07455C9.70421 0.602673 7.30734 0.602673 5.83703 2.07455L1.7589 6.14955C1.73234 6.17611 1.71828 6.21205 1.71828 6.24955C1.71828 6.28705 1.73234 6.32299 1.7589 6.34955L2.33546 6.92611C2.36182 6.95235 2.39749 6.96708 2.43468 6.96708C2.47187 6.96708 2.50755 6.95235 2.5339 6.92611L6.61203 2.85111C7.11828 2.34486 7.79171 2.06674 8.50734 2.06674C9.22296 2.06674 9.8964 2.34486 10.4011 2.85111C10.9073 3.35736 11.1855 4.0308 11.1855 4.74486C11.1855 5.46049 10.9073 6.13236 10.4011 6.63861L6.24484 10.7933L5.5714 11.4667C4.94171 12.0964 3.91828 12.0964 3.28859 11.4667C2.9839 11.162 2.81671 10.7574 2.81671 10.3261C2.81671 9.89486 2.9839 9.49017 3.28859 9.18549L7.41203 5.06361C7.51671 4.96049 7.65421 4.90267 7.80109 4.90267H7.80265C7.94953 4.90267 8.08546 4.96049 8.18859 5.06361C8.29328 5.1683 8.34953 5.3058 8.34953 5.45267C8.34953 5.59799 8.29171 5.73549 8.18859 5.83861L4.81828 9.2058C4.79171 9.23236 4.77765 9.2683 4.77765 9.3058C4.77765 9.3433 4.79171 9.37924 4.81828 9.4058L5.39484 9.98236C5.42119 10.0086 5.45687 10.0233 5.49406 10.0233C5.53125 10.0233 5.56692 10.0086 5.59328 9.98236L8.96203 6.61361C9.27296 6.30267 9.44328 5.89017 9.44328 5.45111C9.44328 5.01205 9.2714 4.59799 8.96203 4.28861C8.31984 3.64642 7.27609 3.64799 6.6339 4.28861L6.2339 4.69017L2.51203 8.41049C2.25942 8.66161 2.05918 8.96039 1.92293 9.2895C1.78667 9.6186 1.71711 9.97148 1.71828 10.3277C1.71828 11.0511 2.00109 11.7308 2.51203 12.2417C3.04171 12.7699 3.73546 13.0339 4.42921 13.0339C5.12296 13.0339 5.81671 12.7699 6.34484 12.2417L11.1761 7.41361C11.887 6.70111 12.2808 5.75267 12.2808 4.74486C12.2823 3.73549 11.8886 2.78705 11.1761 2.07455Z" fill="#9397B6"/>
</svg>
