<svg width="14" height="14" viewBox="0 0 14 14" fill="none" xmlns="http://www.w3.org/2000/svg">
<g clip-path="url(#clip0_1_948)">
<path d="M5.09375 5.46515H6.24844V10.7511C6.24844 10.8198 6.30469 10.8761 6.37344 10.8761H7.31094C7.37969 10.8761 7.43594 10.8198 7.43594 10.7511V5.46515H8.59375C8.69844 5.46515 8.75625 5.34484 8.69219 5.26359L6.94219 3.04796C6.93049 3.03302 6.91555 3.02094 6.8985 3.01263C6.88144 3.00432 6.86272 3 6.84375 3C6.82478 3 6.80606 3.00432 6.789 3.01263C6.77194 3.02094 6.75701 3.03302 6.74531 3.04796L4.99531 5.26202C4.93125 5.34484 4.98906 5.46515 5.09375 5.46515ZM12.5625 10.2823H11.625C11.5562 10.2823 11.5 10.3386 11.5 10.4073V12.8136H2.1875V10.4073C2.1875 10.3386 2.13125 10.2823 2.0625 10.2823H1.125C1.05625 10.2823 1 10.3386 1 10.4073V13.5011C1 13.7776 1.22344 14.0011 1.5 14.0011H12.1875C12.4641 14.0011 12.6875 13.7776 12.6875 13.5011V10.4073C12.6875 10.3386 12.6313 10.2823 12.5625 10.2823Z" fill="white"/>
</g>
<defs>
<clipPath id="clip0_1_948">
<rect width="14" height="14" fill="white"/>
</clipPath>
</defs>
</svg>
