<svg width="295" height="49" viewBox="0 0 295 49" fill="none" xmlns="http://www.w3.org/2000/svg">
<path d="M39.5145 32.8801L17.3262 1.44336H0.95752V47.2782H13.2406V15.0533L35.8493 47.2782H51.7976V1.44336H39.5145V32.8801Z" fill="#132539"/>
<path d="M99.406 3.45303C94.9329 1.37765 90.0428 0.35739 85.113 0.470941C80.1878 0.361746 75.303 1.38185 70.8331 3.45303C66.8783 5.32948 63.537 8.28947 61.1973 11.9892C58.8577 15.6889 57.6157 19.9765 57.6157 24.3539C57.6157 28.7314 58.8577 33.019 61.1973 36.7187C63.537 40.4184 66.8783 43.3784 70.8331 45.2548C75.303 47.326 80.1878 48.3461 85.113 48.2369C90.0459 48.3382 94.9361 47.3044 99.406 45.2154C103.361 43.339 106.702 40.379 109.042 36.6793C111.381 32.9795 112.623 28.692 112.623 24.3145C112.623 19.9371 111.381 15.6495 109.042 11.9498C106.702 8.25007 103.361 5.29007 99.406 3.41362V3.45303ZM97.7902 31.0406C96.5931 32.944 94.8612 34.452 92.8113 35.3758C90.382 36.3865 87.7769 36.9069 85.1458 36.9069C82.5148 36.9069 79.9096 36.3865 77.4804 35.3758C75.421 34.4506 73.6768 32.9438 72.4621 31.0406C71.3004 28.9893 70.6898 26.672 70.6898 24.3145C70.6898 21.9571 71.3004 19.6398 72.4621 17.5884C73.6768 15.6853 75.421 14.1785 77.4804 13.2532C79.9096 12.2425 82.5148 11.7222 85.1458 11.7222C87.7769 11.7222 90.382 12.2425 92.8113 13.2532C94.8612 14.177 96.5931 15.685 97.7902 17.5884C98.9312 19.6466 99.5298 21.9612 99.5298 24.3145C99.5298 26.6678 98.9312 28.9825 97.7902 31.0406Z" fill="#132539"/>
<path d="M142.902 35.5075L127.821 1.44336H114.25L135.585 47.2782H149.944L171.265 1.44336H157.891L142.902 35.5075Z" fill="#132539"/>
<path d="M226.046 1.44325L217.704 15.0006C216.877 13.7657 216.049 12.5834 215.366 11.4799C213.286 8.04332 210.395 5.16983 206.945 3.11164C203.447 1.08829 199.464 0.0572552 195.424 0.129551C191.278 0.0297515 187.186 1.08012 183.601 3.16419C180.242 5.19543 177.513 8.11982 175.719 11.6113C173.753 15.5104 172.77 19.8307 172.855 24.1965C172.769 28.5538 173.753 32.8658 175.719 36.7554C177.497 40.2578 180.23 43.1861 183.601 45.2025C187.197 47.2543 191.285 48.2854 195.424 48.1846C199.463 48.2608 203.446 47.2344 206.945 45.2156C210.393 43.1556 213.27 40.2651 215.313 36.8079C216.01 35.665 216.85 34.4696 217.704 33.2084L226.046 46.9103H239.433L224.483 24.1965L239.393 1.46952L226.046 1.44325ZM199.155 36.913C196.524 36.9739 193.912 36.4489 191.509 35.376C189.45 34.4507 187.706 32.9439 186.491 31.0408C185.724 29.8127 185.202 28.4476 184.954 27.0209L184.862 26.3378C184.862 25.9962 184.77 25.6415 184.77 25.2737C184.753 25.0156 184.753 24.7567 184.77 24.4986C184.765 24.4374 184.765 24.3759 184.77 24.3147V24.2096C184.73 21.8967 185.345 19.6197 186.543 17.6411C187.758 15.738 189.502 14.2312 191.562 13.3059C193.965 12.2331 196.576 11.708 199.207 11.7689C208.101 11.7689 213.527 21.5428 214.407 24.2753C213.54 26.6005 208.653 36.9524 199.116 36.9524L199.155 36.913Z" fill="#132539"/>
<path d="M279.658 33.1558C278.419 34.5785 276.829 35.652 275.047 36.2692C272.935 36.9971 270.712 37.3484 268.478 37.307C265.925 37.3707 263.392 36.8353 261.082 35.7437C259.076 34.7732 257.413 33.2153 256.314 31.2772C255.164 29.1499 254.593 26.758 254.658 24.3409C254.582 21.9373 255.135 19.5555 256.261 17.4308C257.361 15.4932 259.024 13.9355 261.03 12.9642C263.339 11.8727 265.872 11.3373 268.426 11.4009C270.665 11.36 272.892 11.7341 274.994 12.5045C276.768 13.1578 278.353 14.2412 279.605 15.6573C280.814 17.084 281.633 18.7993 281.983 20.6362H294.7C294.324 16.7863 292.887 13.1163 290.548 10.0347C288.136 6.93685 284.97 4.50824 281.353 2.98016C277.246 1.24099 272.819 0.386058 268.36 0.470998C263.526 0.36198 258.735 1.38785 254.369 3.46623C250.537 5.32015 247.307 8.22149 245.055 11.8345C242.811 15.6215 241.686 19.9669 241.81 24.3671C241.714 28.7763 242.871 33.1224 245.147 36.8998C247.41 40.4957 250.643 43.3785 254.474 45.2155C258.84 47.2939 263.632 48.3197 268.465 48.2107C272.924 48.2956 277.351 47.4407 281.458 45.7016C285.075 44.174 288.241 41.7453 290.654 38.647C292.957 35.5857 294.375 31.9501 294.752 28.1374H282.036C281.682 29.985 280.864 31.7121 279.658 33.1558Z" fill="#132539"/>
</svg>
