<svg width="176" height="29" viewBox="0 0 176 29" fill="none" xmlns="http://www.w3.org/2000/svg">
<path d="M23.2669 19.7581L10.0503 1.03271H0.300293V28.3344H7.61674V9.13949L21.0837 28.3344H30.5833V1.03271H23.2669V19.7581Z" fill="white"/>
<path d="M58.9414 2.22987C56.2769 0.993656 53.3641 0.385935 50.4277 0.453573C47.494 0.38853 44.5843 0.996158 41.9218 2.22987C39.5661 3.34758 37.5758 5.11071 36.1822 7.31446C34.7886 9.51821 34.0488 12.0721 34.0488 14.6796C34.0488 17.287 34.7886 19.8409 36.1822 22.0447C37.5758 24.2484 39.5661 26.0115 41.9218 27.1293C44.5843 28.363 47.494 28.9706 50.4277 28.9056C53.366 28.9659 56.2788 28.3501 58.9414 27.1058C61.2971 25.9881 63.2873 24.2249 64.681 22.0212C66.0746 19.8174 66.8143 17.2635 66.8143 14.6561C66.8143 12.0487 66.0746 9.49474 64.681 7.29099C63.2873 5.08724 61.2971 3.3241 58.9414 2.20639V2.22987ZM57.9789 18.6625C57.2658 19.7963 56.2342 20.6945 55.0132 21.2448C53.5662 21.8468 52.0145 22.1568 50.4472 22.1568C48.88 22.1568 47.3283 21.8468 45.8813 21.2448C44.6546 20.6937 43.6157 19.7961 42.8921 18.6625C42.2001 17.4406 41.8364 16.0603 41.8364 14.6561C41.8364 13.2519 42.2001 11.8716 42.8921 10.6497C43.6157 9.51605 44.6546 8.61852 45.8813 8.06737C47.3283 7.46535 48.88 7.15543 50.4472 7.15543C52.0145 7.15543 53.5662 7.46535 55.0132 8.06737C56.2342 8.61766 57.2658 9.5159 57.9789 10.6497C58.6585 11.8756 59.0151 13.2543 59.0151 14.6561C59.0151 16.0578 58.6585 17.4366 57.9789 18.6625Z" fill="white"/>
<path d="M84.8502 21.3231L75.867 1.03271H67.7837L80.4916 28.3344H89.0444L101.745 1.03271H93.7786L84.8502 21.3231Z" fill="white"/>
<path d="M134.375 1.03272L129.406 9.1082C128.913 8.37264 128.42 7.66838 128.013 7.01108C126.775 4.96408 125.052 3.25247 122.998 2.0265C120.914 0.821286 118.542 0.207149 116.135 0.250212C113.666 0.190766 111.228 0.816425 109.092 2.05781C107.092 3.26772 105.466 5.00964 104.397 7.08933C103.227 9.41185 102.641 11.9853 102.692 14.5858C102.641 17.1812 103.226 19.7497 104.397 22.0665C105.457 24.1528 107.084 25.897 109.092 27.098C111.234 28.3202 113.67 28.9344 116.135 28.8743C118.541 28.9198 120.913 28.3084 122.998 27.1059C125.051 25.8788 126.765 24.1571 127.982 22.0978C128.397 21.417 128.898 20.705 129.406 19.9538L134.375 28.1153H142.349L133.444 14.5858L142.326 1.04837L134.375 1.03272ZM118.357 22.1604C116.79 22.1967 115.235 21.8839 113.803 21.2449C112.576 20.6937 111.537 19.7962 110.814 18.6626C110.357 17.9311 110.046 17.118 109.898 16.2681L109.844 15.8612C109.844 15.6578 109.789 15.4465 109.789 15.2274C109.779 15.0737 109.779 14.9195 109.789 14.7657C109.786 14.7293 109.786 14.6926 109.789 14.6562V14.5936C109.765 13.2159 110.131 11.8596 110.845 10.681C111.569 9.54744 112.608 8.64991 113.834 8.09876C115.266 7.45971 116.821 7.14698 118.389 7.18323C123.686 7.18323 126.918 13.0051 127.442 14.6327C126.926 16.0177 124.015 22.1839 118.334 22.1839L118.357 22.1604Z" fill="white"/>
<path d="M166.309 19.9224C165.572 20.7699 164.625 21.4093 163.563 21.777C162.305 22.2106 160.981 22.4198 159.65 22.3952C158.129 22.4331 156.62 22.1142 155.245 21.464C154.05 20.8859 153.059 19.9579 152.404 18.8035C151.719 17.5363 151.379 16.1116 151.418 14.6718C151.373 13.2401 151.702 11.8214 152.373 10.5558C153.028 9.40166 154.019 8.47385 155.213 7.89531C156.589 7.24514 158.098 6.92623 159.619 6.96412C160.952 6.93971 162.279 7.16258 163.531 7.62143C164.588 8.01062 165.532 8.6559 166.278 9.49945C166.998 10.3493 167.486 11.371 167.694 12.4652H175.269C175.045 10.1719 174.189 7.98589 172.796 6.15032C171.359 4.30506 169.473 2.85845 167.319 1.94825C164.873 0.912307 162.236 0.403063 159.58 0.453659C156.701 0.388721 153.846 0.999783 151.246 2.23778C148.963 3.34207 147.04 5.07027 145.698 7.22235C144.361 9.47809 143.691 12.0665 143.765 14.6875C143.708 17.3138 144.397 19.9026 145.753 22.1526C147.101 24.2945 149.027 26.0117 151.309 27.1059C153.909 28.3439 156.763 28.9549 159.642 28.89C162.298 28.9406 164.935 28.4313 167.381 27.3954C169.536 26.4855 171.422 25.0388 172.859 23.1933C174.231 21.3698 175.076 19.2043 175.3 16.9333H167.726C167.515 18.0338 167.028 19.0625 166.309 19.9224Z" fill="white"/>
</svg>
