<svg width="25" height="25" viewBox="0 0 25 25" fill="none" xmlns="http://www.w3.org/2000/svg">
<path d="M19.8556 19.4569H5.63897C4.84635 19.4569 4.36878 18.5788 4.79953 17.9135L6.44315 15.3747V9.99983C6.44315 8.43051 7.11103 6.93535 8.27984 5.88813L8.34988 5.82537C10.8683 3.56896 14.6935 3.61139 17.1612 5.92311C18.2581 6.95068 18.8805 8.38662 18.8805 9.88966V15.3747L20.669 17.8752C21.1423 18.537 20.6693 19.4569 19.8556 19.4569Z" stroke="#181818" stroke-width="1.5" stroke-linecap="round"/>
<path d="M14.8003 3.83789V3.83789C13.775 2.55622 11.8256 2.55622 10.8003 3.83789V3.83789" stroke="#181818" stroke-width="1.5" stroke-linecap="round"/>
<path d="M10.8003 21.3379V21.3379C11.7517 22.765 13.8489 22.765 14.8003 21.3379V21.3379" stroke="#181818" stroke-width="1.5" stroke-linecap="round"/>
</svg>
