<svg width="25" height="25" viewBox="0 0 25 25" fill="none" xmlns="http://www.w3.org/2000/svg">
<path d="M8.58285 15.6825C7.48247 16.3143 4.59735 17.6044 6.35459 19.2187C7.21298 20.0073 8.16901 20.5713 9.37097 20.5713H16.2296C17.4316 20.5713 18.3876 20.0073 19.246 19.2187C21.0032 17.6044 18.1181 16.3143 17.0177 15.6825C14.4374 14.2009 11.1632 14.2009 8.58285 15.6825Z" stroke="white" stroke-opacity="0.68" stroke-width="1.5" stroke-linecap="round" stroke-linejoin="round"/>
<path d="M16.8003 7.57129C16.8003 9.78043 15.0094 11.5713 12.8003 11.5713C10.5912 11.5713 8.80029 9.78043 8.80029 7.57129C8.80029 5.36215 10.5912 3.57129 12.8003 3.57129C15.0094 3.57129 16.8003 5.36215 16.8003 7.57129Z" stroke="white" stroke-opacity="0.68" stroke-width="1.5"/>
</svg>
