<svg width="17" height="16" viewBox="0 0 17 16" fill="none" xmlns="http://www.w3.org/2000/svg">
<path d="M8.65741 2.66479C8.83421 2.66483 9.00375 2.7351 9.12874 2.86013L11.7954 5.52679C11.9168 5.65253 11.984 5.82093 11.9825 5.99573C11.981 6.17053 11.9109 6.33773 11.7873 6.46134C11.6637 6.58495 11.4965 6.65506 11.3217 6.65658C11.1469 6.6581 10.9785 6.5909 10.8527 6.46946L8.65741 4.27413L6.46208 6.46946C6.33634 6.5909 6.16794 6.6581 5.99314 6.65658C5.81834 6.65506 5.65114 6.58495 5.52753 6.46134C5.40393 6.33773 5.33381 6.17053 5.33229 5.99573C5.33077 5.82093 5.39797 5.65253 5.51941 5.52679L8.18608 2.86013C8.31107 2.7351 8.48061 2.66483 8.65741 2.66479ZM5.51941 9.52679C5.64443 9.40181 5.81397 9.3316 5.99074 9.3316C6.16752 9.3316 6.33706 9.40181 6.46208 9.52679L8.65741 11.7221L10.8527 9.52679C10.9785 9.40536 11.1469 9.33816 11.3217 9.33968C11.4965 9.3412 11.6637 9.41131 11.7873 9.53492C11.9109 9.65852 11.981 9.82573 11.9825 10.0005C11.984 10.1753 11.9168 10.3437 11.7954 10.4695L9.12874 13.1361C9.00372 13.2611 8.83419 13.3313 8.65741 13.3313C8.48063 13.3313 8.31109 13.2611 8.18608 13.1361L5.51941 10.4695C5.39443 10.3444 5.32422 10.1749 5.32422 9.99813C5.32422 9.82135 5.39443 9.65181 5.51941 9.52679Z" fill="#323639"/>
</svg>
