<svg width="20" height="20" viewBox="0 0 20 20" fill="none" xmlns="http://www.w3.org/2000/svg">
<mask id="path-1-inside-1_129_6069" fill="white">
<path fill-rule="evenodd" clip-rule="evenodd" d="M1 10.0001C2.38551 6.49142 5.89256 4 10 4C14.1075 4 17.6145 6.49143 19 10.0001C17.6145 13.5087 14.1075 16.0001 10 16.0001C5.89256 16.0001 2.38551 13.5087 1 10.0001Z"/>
</mask>
<path d="M1 10.0001L-0.395162 9.44913L-0.612716 10.0001L-0.395162 10.551L1 10.0001ZM19 10.0001L20.3952 10.551L20.6128 10.0001L20.3952 9.44913L19 10.0001ZM2.39516 10.551C3.5537 7.61713 6.50614 5.5 10 5.5V2.5C5.27898 2.5 1.21732 5.36572 -0.395162 9.44913L2.39516 10.551ZM10 5.5C13.4939 5.5 16.4463 7.61713 17.6049 10.551L20.3952 9.44913C18.7827 5.36573 14.7211 2.5 10 2.5V5.5ZM17.6049 9.44913C16.4463 12.383 13.4939 14.5001 10 14.5001V17.5001C14.7211 17.5001 18.7827 14.6344 20.3952 10.551L17.6049 9.44913ZM10 14.5001C6.50614 14.5001 3.5537 12.383 2.39516 9.44913L-0.395162 10.551C1.21732 14.6344 5.27898 17.5001 10 17.5001V14.5001Z" fill="#606060" mask="url(#path-1-inside-1_129_6069)"/>
<path d="M10.0001 12.2517C11.2288 12.2517 12.0358 11.1314 12.0358 10.0013C12.0358 8.87131 11.2288 7.75098 10.0001 7.75098C8.77132 7.75098 7.96436 8.87131 7.96436 10.0013C7.96436 11.1314 8.77132 12.2517 10.0001 12.2517Z" stroke="#606060" stroke-width="1.5"/>
</svg>
