<svg width="24" height="25" viewBox="0 0 24 25" fill="none" xmlns="http://www.w3.org/2000/svg">
<path fill-rule="evenodd" clip-rule="evenodd" d="M11.8004 18.9937C15.3903 18.9937 18.3004 16.0835 18.3004 12.4937C18.3004 8.9038 15.3903 5.99365 11.8004 5.99365C8.21056 5.99365 5.30042 8.9038 5.30042 12.4937C5.30042 16.0835 8.21056 18.9937 11.8004 18.9937ZM11.8004 20.4937C16.2187 20.4937 19.8004 16.9119 19.8004 12.4937C19.8004 8.07537 16.2187 4.49365 11.8004 4.49365C7.38214 4.49365 3.80042 8.07537 3.80042 12.4937C3.80042 16.9119 7.38214 20.4937 11.8004 20.4937Z" fill="#A1A4BD"/>
<path opacity="0.8" d="M12.1956 14.2122H11.1417C11.1097 13.8609 11.1337 13.5455 11.2135 13.2661C11.3014 12.9866 11.4531 12.7271 11.6687 12.4876C11.8922 12.2401 12.1917 11.9885 12.5669 11.733C12.8384 11.5414 13.038 11.3498 13.1658 11.1581C13.2935 10.9585 13.3574 10.739 13.3574 10.4994C13.3574 10.1162 13.2217 9.80477 12.9502 9.56523C12.6787 9.32569 12.3234 9.20593 11.8842 9.20593C11.493 9.20593 11.1177 9.31372 10.7584 9.5293C10.4071 9.7369 10.0837 10.0643 9.78831 10.5114L8.89005 9.63709C9.28129 9.12608 9.73641 8.73484 10.2554 8.46336C10.7744 8.19189 11.3293 8.05615 11.9202 8.05615C12.4551 8.05615 12.9302 8.16394 13.3454 8.37953C13.7686 8.59511 14.1 8.88654 14.3395 9.25383C14.587 9.61314 14.7108 10.0243 14.7108 10.4874C14.7108 10.9266 14.587 11.3218 14.3395 11.6732C14.092 12.0245 13.7127 12.3518 13.2017 12.6553C12.8184 12.8868 12.555 13.1184 12.4112 13.3499C12.2675 13.5815 12.1956 13.8689 12.1956 14.2122ZM12.555 16.0686C12.555 16.3082 12.4671 16.5118 12.2915 16.6795C12.1238 16.8471 11.9162 16.931 11.6687 16.931C11.4291 16.931 11.2215 16.8471 11.0459 16.6795C10.8782 16.5118 10.7944 16.3082 10.7944 16.0686C10.7944 15.8291 10.8782 15.6255 11.0459 15.4578C11.2215 15.2902 11.4291 15.2063 11.6687 15.2063C11.9162 15.2063 12.1238 15.2902 12.2915 15.4578C12.4671 15.6255 12.555 15.8291 12.555 16.0686Z" fill="#9397B6"/>
</svg>
