<svg width="25" height="25" viewBox="0 0 25 25" fill="none" xmlns="http://www.w3.org/2000/svg">
<path d="M7.50635 18.3948L7.50635 14.1595" stroke="white" stroke-opacity="0.68" stroke-width="1.5" stroke-linecap="round"/>
<path d="M12.8003 18.3949L12.8003 7.80664" stroke="white" stroke-opacity="0.68" stroke-width="1.5" stroke-linecap="round"/>
<path d="M18.0947 18.3948L18.0947 12.0419" stroke="white" stroke-opacity="0.68" stroke-width="1.5" stroke-linecap="round"/>
<path d="M10.3301 21.5713C7.50165 21.5713 6.08744 21.5713 5.20876 20.6926C4.33008 19.8139 4.33008 18.3997 4.33008 15.5713V9.57129C4.33008 6.74286 4.33008 5.32865 5.20876 4.44997C6.08744 3.57129 7.50165 3.57129 10.3301 3.57129H15.2712C18.0996 3.57129 19.5139 3.57129 20.3925 4.44998C21.2712 5.32868 21.2712 6.74291 21.2712 9.57137L21.2711 15.5714C21.271 18.3998 21.271 19.814 20.3923 20.6926C19.5137 21.5713 18.0995 21.5713 15.2711 21.5713H10.3301Z" stroke="white" stroke-opacity="0.68" stroke-width="1.5" stroke-linejoin="round"/>
</svg>
